# xmcd CD database file
#
# Track frame offsets:
#	150
#	12544
#	31028
#	56700
#	67311
#	81656
#	102131
#	119485
#	145150
#	169464
#	203097
#	220246
#
# Disc length: 3260 seconds
#
# Revision: 1
# Processed by: cddbd v1.5PL3 Copyright (c) Steve Scherf et al.
# Submitted via: CDex 1.51
#
DISCID=b80cba0c
DTITLE=Cooder Graw - Home At The Golden Light
DYEAR=1998
DGENRE=Country
TTITLE0=Amarillo Highway
TTITLE1=Flip Flop Fly
TTITLE2=Red House
TTITLE3=I Ain't Never
TTITLE4=Whiskey River
TTITLE5=Little Wing
TTITLE6=Pick Up The Tempo
TTITLE7=Stormy Monday
TTITLE8=London Homesick Blues
TTITLE9=The Road
TTITLE10=Kick My Ass
TTITLE11=County Colors
EXTD=YEAR: 1998
EXTT0=
EXTT1=
EXTT2=
EXTT3=
EXTT4=
EXTT5=
EXTT6=
EXTT7=
EXTT8=
EXTT9=
EXTT10=
EXTT11=
PLAYORDER=
